{"accessors" : [{"bufferView" : 0, "byteOffset" : 0, "componentType" : 5123, "count" : 8640, "type" : "SCALAR", "max" : [8639], "min" : [0]}, {"bufferView" : 1, "byteOffset" : 0, "componentType" : 5126, "count" : 8640, "type" : "VEC3", "max" : [11.9519624710083, 12.303586959838867, 24.065452575683594], "min" : [-7.477447986602783, -7.125822067260742, -19.650442123413086], "name" : "POSITION"}, {"bufferView" : 1, "byteOffset" : 12, "componentType" : 5126, "count" : 8640, "type" : "VEC3", "max" : [0.9968466758728027, 0.9968476295471191, 0.9882960915565491], "min" : [-0.9968484044075012, -0.9968476295471191, -0.8640579581260681], "name" : "NORMAL"}], "asset" : {"generator" : "Aspose.3D 21.11", "version" : "2.0"}, "buffers" : [{"uri" : "data:application/octet-stream;base64,", "byteLength" : 224648}], "bufferViews" : [{"buffer" : 0, "byteOffset" : 0, "byteLength" : 17280, "target" : 34963}, {"buffer" : 0, "byteOffset" : 17284, "byteLength" : 207360, "byteStride" : 24, "target" : 34962}], "meshes" : [{"primitives" : [{"attributes" : {"POSITION" : 1, "NORMAL" : 2}, "indices" : 0, "mode" : 4}], "name" : "Exported from Blender-2.79 (sub 0)"}], "nodes" : [{"mesh" : 0, "name" : "Exported from Blender-2.79 (sub 0)"}], "scene" : 0, "scenes" : [{"nodes" : [0]}]}